PathFileType	4	(X/Y/Z)	D:\Share\Shared_Data\Ergonomics\Sit To Stand Pertubation\S0\Perturbed STS.trc
DataRate	CameraRate	NumFrames	NumMarkers	Units	OrigDataRate	OrigDataStartFrame	OrigNumFrames	
100	100	6	18	m	100	7954	211
Frame#	Time	R_Heel			R_ASIS			R_Pelvis			V_Sacral			L_Pelvis			L_ASIS			Clavical			R_Acromium			L_Acromium			Sternum			Torso			R_Thigh_Med			R_Thigh_Lat			R_Thigh			R_Shank_Med			R_Shank_Lat			R_Shank			R_Toe			
		X1	Y1	Z1	X2	Y2	Z2	X3	Y3	Z3	X4	Y4	Z4	X5	Y5	Z5	X6	Y6	Z6	X7	Y7	Z7	X8	Y8	Z8	X9	Y9	Z9	X10	Y10	Z10	X11	Y11	Z11	X12	Y12	Z12	X13	Y13	Z13	X14	Y14	Z14	X15	Y15	Z15	X16	Y16	Z16	X17	Y17	Z17	X18	Y18	Z18	

7954	35.88	0.18595956	0.041147293	0.13103265	0.35453964	1.0025043	0.14444949	0.22946004	1.0220762	0.18436099	0.10905821	1.0262899	-0.04414629	0.25443684	1.0067454	-0.22191147	0.36940735	0.98379791	-0.17278517	0.3892027	1.4393324	-0.025330044	0.30364468	1.5053832	0.11289809	0.30637402	1.5105835	-0.17853046	0.42103903	1.3460834	-0.040942318	0.39431146	1.3917616	-0.14854323	0.30758325	0.49461441	0.026881165	0.30579831	0.52004205	0.15377176	0.38251163	0.65015686	0.087557213	0.28275302	0.10079597	0.083828354	0.22485408	0.086646751	0.17249919	0.25789139	0.31883105	0.18129691	0.41321371	0.047566612	0.1235087
7955	35.89	0.18590625	0.041090435	0.13111499	0.35618597	1.0029073	0.14463794	0.2310864	1.0221523	0.1843943	0.11083426	1.025698	-0.044203587	0.25644348	1.0066173	-0.22183386	0.37143643	0.98415247	-0.17260359	0.38853235	1.4400844	-0.025196289	0.30264108	1.5056257	0.11315001	0.30515024	1.5108298	-0.17841032	0.42095007	1.3470436	-0.040817787	0.39385873	1.3925529	-0.14845897	0.30648953	0.49467712	0.026903173	0.30493707	0.52018225	0.15371527	0.38244507	0.64985516	0.087401581	0.28263373	0.10087453	0.083936188	0.22475078	0.086599434	0.172571	0.25718259	0.3189371	0.18137187	0.41317081	0.047602474	0.12358342
7956	35.9	0.18584795	0.041028702	0.13119661	0.35778799	1.0032785	0.14482816	0.23265298	1.0222003	0.18442134	0.11256681	1.0250728	-0.044268829	0.25839325	1.006449	-0.22175893	0.37341211	0.98447638	-0.17243221	0.38787927	1.4407689	-0.025063051	0.30166821	1.5058121	0.1134017	0.30396735	1.5110249	-0.17828984	0.42085168	1.3479282	-0.040690575	0.39339981	1.3932694	-0.148368	0.30540063	0.4947366	0.026938417	0.3040787	0.52032507	0.1536769	0.38235938	0.64957239	0.087251129	0.28251062	0.10095231	0.084045715	0.22464148	0.086549194	0.17264604	0.25647372	0.31904202	0.18145096	0.41312015	0.047641518	0.12366316
7957	35.91	0.18578728	0.040964718	0.1312747	0.35934973	1.0036212	0.14501508	0.23415681	1.0222197	0.18444092	0.11426019	1.0244216	-0.044342411	0.26027908	1.006244	-0.22168842	0.37531418	0.9847627	-0.17227565	0.38724557	1.4413903	-0.024928041	0.30072864	1.5059453	0.11365508	0.3028269	1.5111714	-0.17816702	0.42074295	1.3487371	-0.040559868	0.39293826	1.393913	-0.1482683	0.30433069	0.49479388	0.026986589	0.30323196	0.52046814	0.1536584	0.38226407	0.6493064	0.087113312	0.28238806	0.10102878	0.084156311	0.22452594	0.086497383	0.17272122	0.25576854	0.319146	0.18153413	0.41306418	0.047681496	0.12374794
7958	35.92	0.18572644	0.040900848	0.13134724	0.3608743	1.003937	0.14519383	0.23559875	1.0222134	0.18445299	0.1159158	1.0237548	-0.044424633	0.26209964	1.006011	-0.22162515	0.37712799	0.98500665	-0.17213654	0.38663257	1.441953	-0.024789631	0.2998237	1.506028	0.11391145	0.3017276	1.51127	-0.17804002	0.42062442	1.3494728	-0.04042548	0.3924783	1.3944868	-0.14815915	0.30329727	0.4948504	0.027048317	0.30240744	0.52060876	0.15366042	0.3821676	0.64905481	0.08699408	0.28226932	0.10110361	0.084267563	0.22440448	0.086444931	0.17279376	0.25507274	0.3192493	0.18162196	0.4130051	0.047720688	0.1238371
7959	35.93	0.18566661	0.040838654	0.13141336	0.36236386	1.0042264	0.14536057	0.2369821	1.022187	0.18445992	0.11753181	1.0230851	-0.044515053	0.26386102	1.0057632	-0.22157265	0.37885034	0.98520764	-0.17201619	0.38604059	1.4424614	-0.024647209	0.29895346	1.5060629	0.11417126	0.30066544	1.5113228	-0.17790779	0.42049695	1.3501399	-0.040287968	0.3920238	1.3949971	-0.14804126	0.3023208	0.49490768	0.027124628	0.30161771	0.52074445	0.1536821	0.38207837	0.64881616	0.086897545	0.28215591	0.10117658	0.084379005	0.22427757	0.08639238	0.17286182	0.25439319	0.31935217	0.18171521	0.41294418	0.0477579	0.12392976
